<svg width="32" height="32" viewBox="0 0 32 32" fill="none" xmlns="http://www.w3.org/2000/svg">
<rect width="32" height="32" rx="4" fill="#0C5AF2"/>
<g clip-path="url(#clip0_35_20)">
<path d="M22.5931 13.4639C22.4414 13.4639 22.0152 13.4736 21.4745 13.4874H20.5766C20.5169 13.4839 20.457 13.4839 20.3973 13.4874C20.4083 13.4014 20.4138 13.3148 20.4138 13.2281C20.4136 12.7045 20.5607 12.1915 20.8383 11.7476C21.1158 11.3036 21.5127 10.9468 21.9835 10.7177L20.4924 8.60602C19.687 9.07921 19.0192 9.75462 18.5552 10.5653C18.0912 11.3761 17.847 12.294 17.8469 13.2281C17.8469 15.6736 17.7573 16.0074 19.3987 16.0488C19.7435 16.0571 20.16 16.0488 20.6704 16.0488C20.7724 16.0488 20.9256 16.0488 21.1062 16.0391H22.6993C23.4311 16.062 24.1245 16.3714 24.6303 16.9007C25.1361 17.43 25.4138 18.1368 25.4035 18.8688C25.3932 19.6008 25.0957 20.2995 24.5752 20.8143C24.0547 21.3291 23.3528 21.6189 22.6207 21.6212C22.2017 21.6233 21.7876 21.5306 21.4095 21.35C21.0314 21.1695 20.699 20.9057 20.4373 20.5784L14.3104 11.7964L14.3021 11.8033L13.7931 11.0626L13.7807 11.0695C13.2841 10.4035 12.6391 9.86259 11.8968 9.48955C11.1546 9.11652 10.3356 8.92168 9.50486 8.9205C8.80034 8.91941 8.10253 9.05726 7.45135 9.32615C6.80016 9.59505 6.20839 9.98972 5.7099 10.4876C5.21141 10.9854 4.81599 11.5767 4.54626 12.2275C4.27653 12.8783 4.13778 13.576 4.13796 14.2805C4.13796 17.2433 4.00003 17.1053 6.96417 17.1053C7.5021 17.1053 12.8331 17.0239 13.3228 16.8764L11.68 14.5398H6.86624C6.8028 14.5398 6.74348 14.5398 6.68969 14.5398C6.70018 14.4542 6.70524 14.3681 6.70486 14.2819C6.70486 13.9153 6.77707 13.5522 6.91737 13.2135C7.05767 12.8748 7.2633 12.5671 7.52254 12.3078C7.78177 12.0486 8.08953 11.843 8.42824 11.7027C8.76695 11.5624 9.12997 11.4902 9.49658 11.4902C9.91545 11.4896 10.329 11.5837 10.7064 11.7655C11.0838 11.9472 11.4152 12.2119 11.6759 12.5398L17.8083 21.315L18.3352 22.0502C18.8357 22.7148 19.4842 23.2536 20.2294 23.6237C20.9745 23.9939 21.7956 24.1852 22.6276 24.1826C24.0488 24.1778 25.4099 23.6087 26.4115 22.6004C27.4131 21.5921 27.9731 20.2272 27.9683 18.806C27.9636 17.3848 27.3944 16.0237 26.3861 15.0222C25.3778 14.0206 24.013 13.4606 22.5918 13.4653L22.5931 13.4639Z" fill="white"/>
</g>
<defs>
<clipPath id="clip0_35_20">
<rect width="24" height="15.5862" fill="white" transform="translate(4 8.59772)"/>
</clipPath>
</defs>
</svg>
